<?xml version="1.0" encoding="utf-8"?>
<!-- Generator: Adobe Illustrator 16.0.0, SVG Export Plug-In . SVG Version: 6.00 Build 0)  -->
<!DOCTYPE svg PUBLIC "-//W3C//DTD SVG 1.1//EN" "http://www.w3.org/Graphics/SVG/1.1/DTD/svg11.dtd">
<svg version="1.1" id="圖層_1" xmlns="http://www.w3.org/2000/svg" xmlns:xlink="http://www.w3.org/1999/xlink" x="0px" y="0px"
	 width="512px" height="512px" viewBox="0 0 512 512" enable-background="new 0 0 512 512" xml:space="preserve">
<path d="M100,0C44.771,0,0,44.771,0,100v412h412c55.229,0,100-44.771,100-100V0H100z"/>
<g>
	<path fill="#FFFFFF" d="M90,422V145.035h123.163c63.439,0,95.162,22.659,95.162,67.973c0,32.195-19.143,52.826-57.422,61.887
		c46.126,9.2,69.19,33.682,69.19,73.451c0,49.102-31.045,73.654-93.134,73.654H90z M170.351,265.561h24.754
		c22.858,0,34.291-16.908,34.291-50.727c0-31.247-12.108-46.87-36.32-46.87h-22.725V265.561z M170.351,399.072h22.928
		c30.03,0,45.045-17.178,45.045-51.539c0-39.363-15.49-59.045-46.465-59.045h-21.508V399.072z"/>
</g>
<rect x="359" y="352" fill="#FFFFFF" width="70" height="70"/>
</svg>
